<?xml version="1.0" encoding="utf-8"?>
<!-- Generator: Adobe Illustrator 18.0.0, SVG Export Plug-In . SVG Version: 6.00 Build 0)  -->
<!DOCTYPE svg PUBLIC "-//W3C//DTD SVG 1.1//EN" "http://www.w3.org/Graphics/SVG/1.1/DTD/svg11.dtd">
<svg version="1.1" id="Layer_1" xmlns="http://www.w3.org/2000/svg" xmlns:xlink="http://www.w3.org/1999/xlink" x="0px" y="0px"
	 viewBox="0 0 64 64" enable-background="new 0 0 64 64" xml:space="preserve">
<g>
	<g>
		<path d="M63.8,28.3l-0.2-1.5L55,25.3c-0.2-0.9-0.5-1.7-0.9-2.5c-0.3-0.8-0.7-1.6-1.2-2.4l5-7.1l-0.9-1.2c-1.5-1.9-3.3-3.7-5.2-5.2
			L50.7,6l-7.1,5c-1.6-0.9-3.2-1.5-4.9-2l-1.5-8.6l-1.5-0.2c-2.5-0.3-5-0.3-7.4,0l-1.5,0.2L25.3,9c-0.9,0.2-1.7,0.5-2.5,0.9
			c-0.8,0.3-1.6,0.7-2.4,1.2l-7.1-5l-1.2,0.9c-1.9,1.5-3.7,3.3-5.2,5.2L6,13.3l5,7.1c-0.9,1.6-1.5,3.2-2,4.9l-8.6,1.5l-0.2,1.5
			c-0.3,2.5-0.3,5,0,7.4l0.2,1.5L9,38.7c0.2,0.9,0.5,1.7,0.9,2.5c0.3,0.8,0.7,1.6,1.2,2.4l-5,7.1l0.9,1.2c1.5,1.9,3.3,3.7,5.2,5.2
			l1.2,0.9l7.1-5c1.6,0.9,3.2,1.5,4.9,2l1.5,8.6l1.5,0.2c1.2,0.1,2.5,0.2,3.7,0.2s2.5-0.1,3.7-0.2l1.5-0.2l1.5-8.6
			c0.9-0.2,1.7-0.5,2.5-0.9c0.8-0.3,1.6-0.7,2.4-1.2l7.1,5l1.2-0.9c1.9-1.5,3.7-3.3,5.2-5.2l0.9-1.2l-5-7.1c0.9-1.6,1.5-3.2,2-4.9
			l8.6-1.5l0.2-1.5C64.1,33.3,64.1,30.8,63.8,28.3z M32,44c-6.6,0-12-5.4-12-12s5.4-12,12-12s12,5.4,12,12S38.6,44,32,44z"/>
	</g>
</g>
</svg>
